<svg width="20" height="15" viewBox="0 0 20 15" fill="none" xmlns="http://www.w3.org/2000/svg">
<g clip-path="url(#clip0_2039_42)">
<path fill-rule="evenodd" clip-rule="evenodd" d="M-0.00708008 -0.00265503V15.0027H20V-0.00265503H-0.00708008Z" fill="#2E42A5"/>
<mask id="mask0_2039_42" style="mask-type:luminance" maskUnits="userSpaceOnUse" x="-1" y="-1" width="21" height="17">
<path fill-rule="evenodd" clip-rule="evenodd" d="M-0.00708008 -0.00265503V15.0027H20V-0.00265503H-0.00708008Z" fill="white"/>
</mask>
<g mask="url(#mask0_2039_42)">
<path d="M-2.2348 13.9302L2.16801 15.7927L20.0994 2.02162L22.422 -0.745611L17.7141 -1.36771L10.4003 4.56627L4.51321 8.56518L-2.2348 13.9302Z" fill="white"/>
<path d="M-1.63269 15.235L0.611229 16.3154L21.588 -1.00259H18.4388L-1.63269 15.235Z" fill="#F50100"/>
<path d="M22.2277 13.9302L17.8248 15.7927L-0.106502 2.02162L-2.4292 -0.745611L2.27872 -1.36771L9.59256 4.56627L15.4796 8.56518L22.2277 13.9302Z" fill="white"/>
<path d="M22.0776 14.8666L19.8343 15.947L10.9023 8.53189L8.25391 7.7041L-2.65308 -0.736389H0.496789L11.3969 7.50403L14.2923 8.49688L22.0776 14.8666Z" fill="#F50100"/>
<path fill-rule="evenodd" clip-rule="evenodd" d="M12.3585 -1.25323H7.63434V4.99898H-1.24005V10.0007H7.63434V16.253H12.3585V10.0007H21.2679V4.99898H12.3585V-1.25323Z" fill="#F50100"/>
<mask id="mask1_2039_42" style="mask-type:luminance" maskUnits="userSpaceOnUse" x="-2" y="-2" width="24" height="19">
<path fill-rule="evenodd" clip-rule="evenodd" d="M12.3585 -1.25323H7.63434V4.99898H-1.24005V10.0007H7.63434V16.253H12.3585V10.0007H21.2679V4.99898H12.3585V-1.25323Z" fill="white"/>
</mask>
<g mask="url(#mask1_2039_42)">
<path d="M7.63429 -1.2534V-2.50385H6.38385V-1.2534H7.63429ZM12.3585 -1.2534H13.6089V-2.50385H12.3585V-1.2534ZM7.63429 4.99881V6.24925H8.88474V4.99881H7.63429ZM-1.2401 4.99881V3.74837H-2.49054V4.99881H-1.2401ZM-1.2401 10.0006H-2.49054V11.251H-1.2401V10.0006ZM7.63429 10.0006H8.88474V8.75014H7.63429V10.0006ZM7.63429 16.2528H6.38385V17.5032H7.63429V16.2528ZM12.3585 16.2528V17.5032H13.6089V16.2528H12.3585ZM12.3585 10.0006V8.75014H11.108V10.0006H12.3585ZM21.2679 10.0006V11.251H22.5183V10.0006H21.2679ZM21.2679 4.99881H22.5183V3.74837H21.2679V4.99881ZM12.3585 4.99881H11.108V6.24925H12.3585V4.99881ZM7.63429 -0.00296021H12.3585V-2.50385H7.63429V-0.00296021ZM8.88474 4.99881V-1.2534H6.38385V4.99881H8.88474ZM-1.2401 6.24925H7.63429V3.74837H-1.2401V6.24925ZM0.0103455 10.0006V4.99881H-2.49054V10.0006H0.0103455ZM7.63429 8.75014H-1.2401V11.251H7.63429V8.75014ZM8.88474 16.2528V10.0006H6.38385V16.2528H8.88474ZM12.3585 15.0023H7.63429V17.5032H12.3585V15.0023ZM11.108 10.0006V16.2528H13.6089V10.0006H11.108ZM21.2679 8.75014H12.3585V11.251H21.2679V8.75014ZM20.0174 4.99881V10.0006H22.5183V4.99881H20.0174ZM12.3585 6.24925H21.2679V3.74837H12.3585V6.24925ZM11.108 -1.2534V4.99881H13.6089V-1.2534H11.108Z" fill="white"/>
</g>
</g>
</g>
<defs>
<clipPath id="clip0_2039_42">
<rect width="20.0071" height="15.0053" fill="white" transform="translate(-0.00708008 -0.00265503)"/>
</clipPath>
</defs>
</svg>
