<svg width="16" height="17" viewBox="0 0 16 17" fill="none" xmlns="http://www.w3.org/2000/svg">
<path d="M1.63599 5.793C1.82351 5.60553 2.07782 5.50021 2.34299 5.50021C2.60815 5.50021 2.86246 5.60553 3.04999 5.793L7.99999 10.743L12.95 5.793C13.1386 5.61084 13.3912 5.51005 13.6534 5.51233C13.9156 5.5146 14.1664 5.61977 14.3518 5.80518C14.5372 5.99059 14.6424 6.2414 14.6447 6.5036C14.6469 6.7658 14.5461 7.0184 14.364 7.207L8.70699 12.864C8.51946 13.0515 8.26515 13.1568 7.99999 13.1568C7.73482 13.1568 7.48052 13.0515 7.29299 12.864L1.63599 7.207C1.44852 7.01947 1.3432 6.76516 1.3432 6.5C1.3432 6.23484 1.44852 5.98053 1.63599 5.793Z" fill="black"/>
</svg>
