<svg width="145" height="25" viewBox="0 0 145 25" fill="none" xmlns="http://www.w3.org/2000/svg">
<path d="M0.409961 19.2801H18.1747C18.4012 19.2801 18.5848 19.0965 18.5848 18.8702V1.10532C18.5848 0.87896 18.4012 0.695362 18.1747 0.695362H0.409961C0.183598 0.695362 0 0.87896 0 1.10532V18.8702C0 19.0965 0.183598 19.2801 0.409961 19.2801Z" fill="#1B1B1B"/>
<path d="M9.2924 16.3227C5.73327 16.3227 2.83765 13.4271 2.83765 9.86797H5.23918C5.23918 12.1029 7.05747 13.9212 9.2924 13.9212C11.5273 13.9212 13.3455 12.1029 13.3455 9.86797H15.7472C15.7472 13.4271 12.8515 16.3227 9.2924 16.3227Z" fill="white"/>
<path d="M5.28628 7.18859C5.28628 6.51243 4.73818 5.96421 4.06191 5.96421C3.38575 5.96421 2.83765 6.51243 2.83765 7.18859C2.83765 7.86475 3.38575 8.41296 4.06191 8.41296C4.73818 8.41296 5.28628 7.86475 5.28628 7.18859Z" fill="#F7C650"/>
<path d="M32.3392 15.239V13.3795H28.6209C26.2341 13.3795 25.5556 14.309 25.5556 15.4399C25.5556 16.7714 26.661 17.6003 28.4954 17.6003C30.3043 17.6003 31.7363 16.7714 32.3392 15.239ZM34.7511 11.2692V19.3087H32.4647V17.5498C31.6607 18.7558 30.1783 19.4597 28.0935 19.4597C25.0786 19.4597 23.1687 17.8519 23.1687 15.54C23.1687 13.4045 24.5507 11.6462 28.5205 11.6462H32.3392V11.1686C32.3392 9.13382 31.1583 7.9528 28.7714 7.9528C27.1885 7.9528 25.5805 8.50535 24.5507 9.38479L23.5457 7.57588C24.9276 6.47042 26.9125 5.86749 29.0479 5.86749C32.6907 5.86749 34.7511 7.62637 34.7511 11.2692Z" fill="#1B1B1B"/>
<path d="M39.224 0.666752H41.6358V19.3088H39.224V0.666752Z" fill="#1B1B1B"/>
<path d="M46.2341 0.666752H48.646V19.3088H46.2341V0.666752Z" fill="#1B1B1B"/>
<path d="M61.0568 18.5298C60.3284 19.1578 59.223 19.4597 58.1425 19.4597C55.4541 19.4597 53.9217 17.9773 53.9217 15.289V7.97787H51.6608V5.99344H53.9217V3.0786H56.3336V5.99344H60.1524V7.97787H56.3336V15.1885C56.3336 16.6203 57.0875 17.4243 58.419 17.4243C59.1224 17.4243 59.8009 17.1983 60.3033 16.7963L61.0568 18.5298Z" fill="#1B1B1B"/>
<path d="M76.609 11.6462V19.3088H74.1972V11.9222C74.1972 9.3093 72.8902 8.02834 70.6043 8.02834C68.0414 8.02834 66.3835 9.56074 66.3835 12.4502V19.3088H63.9717V0.666721H66.3835V7.87731C67.3885 6.59646 69.0463 5.86746 71.0813 5.86746C74.3226 5.86746 76.609 7.72687 76.609 11.6462Z" fill="#1B1B1B"/>
<path d="M82.3378 11.7211H90.8803C90.6288 9.48526 88.9454 7.90236 86.609 7.90236C84.2977 7.90236 82.5892 9.46019 82.3378 11.7211ZM93.1412 13.4551H82.3378C82.6397 15.7914 84.5236 17.3488 87.1616 17.3488C88.7194 17.3488 90.0259 16.8213 91.0058 15.741L92.3372 17.2988C91.1312 18.7058 89.2974 19.4598 87.0865 19.4598C82.7902 19.4598 79.9259 16.6204 79.9259 12.6511C79.9259 8.70623 82.7653 5.86743 86.609 5.86743C90.4529 5.86743 93.1912 8.63124 93.1912 12.7261C93.1912 12.9271 93.1662 13.229 93.1412 13.4551Z" fill="#1B1B1B"/>
<path d="M116.432 5.99344L111.458 19.3088H109.146L105.303 9.20927L101.408 19.3088H99.0969L94.1471 5.99344H96.4335L100.303 16.5954L104.323 5.99344H106.357L110.302 16.6459L114.272 5.99344H116.432Z" fill="#1B1B1B"/>
<path d="M126.583 15.239V13.3795H122.865C120.478 13.3795 119.8 14.309 119.8 15.4399C119.8 16.7714 120.905 17.6003 122.74 17.6003C124.548 17.6003 125.98 16.7714 126.583 15.239ZM128.995 11.2692V19.3087H126.709V17.5498C125.905 18.7558 124.422 19.4597 122.338 19.4597C119.323 19.4597 117.413 17.8519 117.413 15.54C117.413 13.4045 118.795 11.6462 122.765 11.6462H126.583V11.1686C126.583 9.13382 125.402 7.9528 123.016 7.9528C121.433 7.9528 119.825 8.50535 118.795 9.38479L117.79 7.57588C119.172 6.47042 121.157 5.86749 123.292 5.86749C126.935 5.86749 128.995 7.62637 128.995 11.2692Z" fill="#1B1B1B"/>
<path d="M132.74 5.99343L137.337 16.6459L141.985 5.99343H144.498L138.619 19.2837L139.046 20.2132C139.699 21.7456 140.428 22.2736 141.583 22.2736C142.488 22.2736 143.317 21.9216 143.97 21.2937L145 23.1025C144.171 23.9065 142.864 24.3334 141.583 24.3334C139.548 24.3334 138.016 23.454 136.835 20.6402L130.378 5.99343H132.74Z" fill="#1B1B1B"/>
</svg>
