<svg width="19" height="20" viewBox="0 0 19 20" fill="none" xmlns="http://www.w3.org/2000/svg">
<path d="M0.409961 19.2801H18.1747C18.4012 19.2801 18.5848 19.0965 18.5848 18.8702V1.10532C18.5848 0.87896 18.4012 0.695362 18.1747 0.695362H0.409961C0.183598 0.695362 0 0.87896 0 1.10532V18.8702C0 19.0965 0.183598 19.2801 0.409961 19.2801Z" fill="#1B1B1B"/>
<path d="M9.2924 16.3227C5.73327 16.3227 2.83765 13.4271 2.83765 9.86797H5.23918C5.23918 12.1029 7.05747 13.9212 9.2924 13.9212C11.5273 13.9212 13.3455 12.1029 13.3455 9.86797H15.7472C15.7472 13.4271 12.8515 16.3227 9.2924 16.3227Z" fill="white"/>
<path d="M5.28628 7.18859C5.28628 6.51243 4.73818 5.96421 4.06191 5.96421C3.38575 5.96421 2.83765 6.51243 2.83765 7.18859C2.83765 7.86475 3.38575 8.41296 4.06191 8.41296C4.73818 8.41296 5.28628 7.86475 5.28628 7.18859Z" fill="#F7C650"/>
</svg>
